<svg width="74" height="68" viewBox="0 0 74 68" fill="none" xmlns="http://www.w3.org/2000/svg">
<path d="M47.7893 7.31303C48.3872 7.31303 48.8719 6.82836 48.8719 6.23049C48.8719 5.63262 48.3872 5.14795 47.7893 5.14795C47.1915 5.14795 46.7068 5.63262 46.7068 6.23049C46.7068 6.82836 47.1915 7.31303 47.7893 7.31303Z" fill="#2B2B2B"/>
<path d="M52.4414 7.31303C53.0393 7.31303 53.524 6.82836 53.524 6.23049C53.524 5.63262 53.0393 5.14795 52.4414 5.14795C51.8436 5.14795 51.3589 5.63262 51.3589 6.23049C51.3589 6.82836 51.8436 7.31303 52.4414 7.31303Z" fill="#2B2B2B"/>
<path d="M20.4758 7.31445H39.9569C40.5555 7.31445 41.0409 6.82912 41.0409 6.23047C41.0409 5.63182 40.5555 5.14648 39.9569 5.14648H20.4758C19.8772 5.14648 19.3918 5.63182 19.3918 6.23047C19.3918 6.82912 19.8772 7.31445 20.4758 7.31445Z" fill="#2B2B2B"/>
<path d="M71.1202 56.3696H69.2178V49.2685C69.2178 48.6698 68.7324 48.1845 68.1338 48.1845C67.5351 48.1845 67.0498 48.6698 67.0498 49.2685V56.3696C62.404 56.3696 9.81729 56.3696 6.95036 56.3696V19.7627C6.95036 18.2885 8.14968 17.089 9.62405 17.089H14.7685V20.0093H11.9462C10.8017 20.0093 9.87062 20.9405 9.87062 22.085V51.3736C9.87062 52.5181 10.8017 53.4493 11.9462 53.4493H62.0536C63.1982 53.4493 64.1292 52.5181 64.1292 51.3736V22.085C64.1292 20.9405 63.1982 20.0093 62.0536 20.0093H59.2315V17.089H64.376C65.8502 17.089 67.0496 18.2883 67.0496 19.7627V44.1977C67.0496 44.7964 67.535 45.2817 68.1336 45.2817C68.7323 45.2817 69.2176 44.7964 69.2176 44.1977V19.7627C69.2176 17.0931 67.0457 14.9211 64.376 14.9211H59.2315V2.99145C59.2315 1.76582 58.2344 0.768555 57.0086 0.768555H16.9914C15.7656 0.768555 14.7685 1.76568 14.7685 2.99145V14.9211H9.6239C6.95427 14.9211 4.78225 17.0929 4.78225 19.7627V56.3697H2.87979C1.29182 56.3696 0 57.6615 0 59.2495C0 63.6509 3.58091 67.2318 7.98232 67.2318H66.0177C70.4191 67.2318 74 63.6509 74 59.2495C74 57.6614 72.7082 56.3696 71.1202 56.3696ZM12.0386 22.1772H14.7683V51.2814H12.0386V22.1772ZM61.9614 22.1772V51.2814H59.2317V22.1772H61.9614ZM16.9914 2.93667H57.0088C57.039 2.93667 57.0637 2.96124 57.0637 2.99159V9.5244H25.4164C24.8178 9.5244 24.3324 10.0097 24.3324 10.6084C24.3324 11.207 24.8178 11.6924 25.4164 11.6924H57.0637V51.2815H16.9363V11.6922H20.3487C20.9473 11.6922 21.4327 11.2069 21.4327 10.6082C21.4327 10.0096 20.9473 9.52426 20.3487 9.52426H16.9363V2.99145C16.9363 2.96124 16.961 2.93667 16.9914 2.93667ZM26.5504 58.5376H47.4496V59.627C47.4496 60.2278 46.9608 60.7166 46.36 60.7166H27.64C27.0392 60.7166 26.5504 60.2278 26.5504 59.627V58.5376ZM66.0177 65.0637H7.98232C4.77632 65.0637 2.16797 62.4554 2.16797 59.2494C2.16797 58.857 2.48724 58.5376 2.87979 58.5376H24.3824V59.627C24.3824 61.4233 25.8438 62.8846 27.64 62.8846H46.36C48.1562 62.8846 49.6176 61.4233 49.6176 59.627V58.5376H71.1202C71.5128 58.5376 71.832 58.8568 71.832 59.2494C71.832 62.4555 69.2237 65.0637 66.0177 65.0637Z" fill="#2B2B2B"/>
<path d="M22.5481 31.8115L21.7623 32.0139C20.0178 32.4633 18.9695 34.2389 19.419 35.9836L19.9617 38.0903C20.3401 39.5592 21.6673 40.5371 23.1187 40.537C23.7424 40.537 24.0905 40.3735 24.8461 40.1979C25.3955 40.838 26.2329 41.1925 27.1008 41.1093L30.902 46.871C31.2972 47.4701 31.962 47.8157 32.657 47.8157C33.0878 47.8157 33.2741 47.7082 34.4117 47.4321C35.5368 47.1425 36.213 45.9972 35.9232 44.8719L34.4738 39.2464L36.0206 38.848C40.1412 37.7865 44.4811 38.8024 47.6977 41.5644L47.7113 41.6172C47.9201 42.428 48.4323 43.1089 49.1534 43.5345C49.6425 43.8233 50.188 43.971 50.7414 43.971C51.0038 43.971 51.268 43.9378 51.5288 43.8706C52.3396 43.6617 53.0205 43.1495 53.4461 42.4284C53.8718 41.7074 53.9912 40.8637 53.7822 40.0531L48.0006 17.6126C47.7918 16.8017 47.2796 16.1209 46.5585 15.6952C45.8376 15.2697 44.9939 15.1503 44.183 15.3592C43.3722 15.568 42.6913 16.0802 42.2656 16.8013C41.84 17.5224 41.7206 18.366 41.9296 19.1767L41.9432 19.2294C40.4617 23.2019 37.153 26.1886 33.0325 27.2502L24.5214 29.443C23.3956 29.7331 22.628 30.7114 22.5481 31.8115ZM23.3907 38.3341C22.8081 38.4843 22.2115 38.1324 22.0612 37.5495L21.5185 35.4428C21.3679 34.8585 21.7189 34.264 22.3033 34.1134L22.9542 33.9456L24.0417 38.1665L23.3907 38.3341ZM33.8074 45.3491L32.686 45.638L29.3415 40.5688L32.3743 39.7874L33.8074 45.3491ZM44.1325 17.9032C44.2638 17.6809 44.4738 17.523 44.7238 17.4585C44.8045 17.4377 44.8853 17.4279 44.9649 17.4279C45.3953 17.4279 45.7889 17.7179 45.9012 18.1534L51.6827 40.5939C51.8157 41.11 51.5039 41.6381 50.9878 41.7711C50.4718 41.9041 49.9436 41.5925 49.8106 41.0762L44.0289 18.6357C43.9646 18.3857 44.0013 18.1256 44.1325 17.9032ZM42.7793 22.4745L46.8616 38.3191C41.0175 34.9137 35.4518 36.7816 35.3229 36.7888L33.4167 29.3898C33.5338 29.3335 39.302 28.2904 42.7793 22.4745ZM25.0622 31.5425L31.3172 29.931L33.2235 37.3299C31.32 37.8203 28.2818 38.6031 26.9686 38.9415C26.5142 39.0581 26.3994 38.5979 26.3879 38.5835L24.7221 32.1186C24.6571 31.8659 24.8097 31.6075 25.0622 31.5425Z" fill="#2B2B2B"/>
</svg>
